<?xml version="1.0" encoding="UTF-8"?><svg id="a" xmlns="http://www.w3.org/2000/svg" viewBox="0 0 1000 176.62107"><defs><style>.b{fill:#003b45;}</style></defs><g><polygon class="b" points="394.07629 175.51437 400.33103 175.51437 400.33103 166.32735 409.67443 166.32735 409.67443 160.46376 400.33103 160.46376 400.33103 154.7949 411.98139 154.7949 411.98139 148.93132 394.07629 148.93132 394.07629 175.51437"/><path class="b" d="M461.51515,150.31884c-1.9542-1.18536-4.26128-1.77874-6.91927-1.77874s-4.96507,.59338-6.91939,1.77874c-1.95506,1.18628-3.45348,2.8148-4.49612,4.88691-1.04252,2.07168-1.5639,4.41101-1.5639,7.01712s.52138,4.94495,1.5639,7.01706c1.04264,2.07211,2.54106,3.70112,4.49612,4.88648,1.95433,1.18628,4.26128,1.77874,6.91939,1.77874s4.96507-.59247,6.91927-1.77874c1.95506-1.18536,3.45348-2.81437,4.49612-4.88648,1.04166-2.07211,1.56305-4.41101,1.56305-7.01706s-.52138-4.94544-1.56305-7.01712c-1.04264-2.07211-2.54106-3.70063-4.49612-4.88691Zm-2.01273,17.8462c-1.212,1.25084-2.84845,1.87653-4.90654,1.87653-2.05906,0-3.69454-.62569-4.90654-1.87653-1.21127-1.25133-1.81727-3.23132-1.81727-5.94217,0-2.71049,.606-4.69133,1.81727-5.94223,1.212-1.25084,2.84748-1.87647,4.90654-1.87647,2.05809,0,3.69454,.62563,4.90654,1.87647,1.21103,1.2509,1.81703,3.23175,1.81703,5.94223,0,2.71085-.606,4.69084-1.81703,5.94217Z"/><path class="b" d="M511.79147,164.1775c0,1.38143-.15632,2.48912-.46895,3.32301-.31263,.83438-.87401,1.46568-1.68095,1.89574-.80853,.43005-1.9681,.64532-3.47969,.64532-1.51147,0-2.67202-.21527-3.47884-.64532-.80853-.43005-1.36832-1.06136-1.68083-1.89574-.31361-.83389-.46993-1.94158-.46993-3.32301v-15.24619h-6.25474v16.80966c0,3.33655,1.08105,5.86407,3.24485,7.58429,2.16295,1.72022,5.04274,2.5799,8.63949,2.5799s6.47581-.85968,8.63961-2.5799c2.16283-1.72022,3.24485-4.24774,3.24485-7.58429v-16.80966h-6.25487v15.24619Z"/><polygon class="b" points="563.20091 164.09935 562.57564 164.09935 552.2552 148.93132 546.00045 148.93132 546.00045 175.51437 552.2552 175.51437 552.2552 160.34634 552.88034 160.34634 563.20091 175.51437 569.4565 175.51437 569.4565 148.93132 563.20091 148.93132 563.20091 164.09935"/><path class="b" d="M607.71144,148.93132h-9.92928v26.58306h9.92928c8.73118,0,13.09635-4.43021,13.09635-13.2915s-4.36516-13.29156-13.09635-13.29156Zm6.37265,17.65014c-.31263,1.02996-.9579,1.79837-1.93506,2.30659-.97789,.50821-2.45717,.76232-4.43759,.76232h-3.67454v-14.85546h3.67454c2.00663,0,3.49189,.24801,4.45686,.74311,.96399,.4951,1.60316,1.25084,1.91579,2.26726s.46895,2.48912,.46895,4.41759c0,1.87647-.15632,3.32953-.46895,4.35858Z"/><path class="b" d="M653.36227,148.93132l-7.85803,26.58306h6.72455l1.21127-4.30011h9.38254l1.212,4.30011h6.72369l-7.85705-26.58306h-9.53898Zm1.72022,16.41893l2.73664-9.85155h.62527l2.73664,9.85155h-6.09855Z"/><polygon class="b" points="694.11217 154.7949 701.10997 154.7949 701.10997 175.51437 707.36471 175.51437 707.36471 154.7949 714.36263 154.7949 714.36263 148.93132 694.11217 148.93132 694.11217 154.7949"/><rect class="b" x="743.09992" y="148.93132" width="6.25474" height="26.58306"/><path class="b" d="M795.11926,150.31884c-1.9542-1.18536-4.26128-1.77874-6.91927-1.77874s-4.96507,.59338-6.91939,1.77874c-1.95506,1.18628-3.45348,2.8148-4.49612,4.88691-1.04252,2.07168-1.5639,4.41101-1.5639,7.01712s.52138,4.94495,1.5639,7.01706c1.04264,2.07211,2.54106,3.70112,4.49612,4.88648,1.95433,1.18628,4.26128,1.77874,6.91939,1.77874s4.96507-.59247,6.91927-1.77874c1.95518-1.18536,3.45348-2.81437,4.49612-4.88648,1.04179-2.07211,1.56305-4.41101,1.56305-7.01706s-.52126-4.94544-1.56305-7.01712c-1.04264-2.07211-2.54094-3.70063-4.49612-4.88691Zm-2.01273,17.8462c-1.212,1.25084-2.84845,1.87653-4.90654,1.87653-2.05906,0-3.69454-.62569-4.90654-1.87653-1.21127-1.25133-1.81727-3.23132-1.81727-5.94217,0-2.71049,.606-4.69133,1.81727-5.94223,1.212-1.25084,2.84748-1.87647,4.90654-1.87647,2.05809,0,3.69454,.62563,4.90654,1.87647,1.21115,1.2509,1.81715,3.23175,1.81715,5.94223,0,2.71085-.606,4.69084-1.81715,5.94217Z"/><polygon class="b" points="844.17237 164.09935 843.54734 164.09935 833.22678 148.93132 826.97191 148.93132 826.97191 175.51437 833.22678 175.51437 833.22678 160.34634 833.85205 160.34634 844.17237 175.51437 850.42821 175.51437 850.42821 148.93132 844.17237 148.93132 844.17237 164.09935"/></g><g><path class="b" d="M707.64668,87.87023c.05024-.39018,.06877-.78329,.08877-1.19103l.00146-.03512h-10.54321l-.0356,.29264c-.28093,2.41133-1.80069,4.15934-4.06619,4.67536-.87303,.19899-1.75387,.30044-2.61861,.30142-10.07499,.01951-20.14999,.01853-30.22693,.00098-.87791-.00195-1.75875-.10242-2.61861-.29849-1.97774-.45066-3.31509-1.65437-3.86719-3.48043-.21021-.69452-.33068-1.47489-.3575-2.31866-.03804-1.16567-.02878-2.34792-.02-3.49018v-2.43852l54.4275,.0945,.00293-3.85793c.00439-2.96636,.00829-5.93272-.01512-8.89908-.01073-1.37929-.09559-2.59959-.25996-3.73112-.44188-3.0405-1.8441-5.63033-4.16715-7.6983-3.10049-2.75956-6.89159-4.17007-11.26798-4.19348-4.79778-.02536-9.63555-.03414-14.45528-.03414-5.31233,0-10.6032,.01073-15.80336,.02048l-3.25363,.00683c-.98326,.00195-2.05138,.10242-3.17462,.29946-1.92604,.33848-3.72234,.97741-5.33818,1.89726-2.47473,1.41051-4.30371,3.21705-5.5918,5.52108-1.14909,2.05529-1.70607,4.31639-1.70315,6.91305l.00293,8.32942c-.00049,3.7516-.00049,7.50223,.00732,11.25383,.00195,.7472,.0595,1.5422,.17119,2.3606,.57015,4.17397,2.77907,7.46028,6.56628,9.76724,2.77029,1.68851,5.9576,2.54496,9.47363,2.54691,9.82528,.00585,19.65104,.0039,29.47534,.00195l3.27509-.00098c2.86345,0,5.51864-.58722,7.89192-1.74509,4.73925-2.31183,7.35591-5.86834,7.99971-10.87048Zm-54.24631-22.35897c.10974-2.66787,1.73631-4.58367,4.35053-5.12504,.85743-.17851,1.76119-.26923,2.68592-.2702,7.71683-.01268,15.43317-.01268,23.15244-.01268h6.75259c.92278,0,2.13625,.05267,3.33898,.46529,2.11332,.72476,3.31606,2.28354,3.47847,4.51051,.09413,1.28565,.07999,2.58886,.06633,3.85012-.00585,.53748-.01171,1.07495-.00927,1.61243l-.00341,.76476h-43.84429v-.95595c.00098-.47212,.00341-.94327,0-1.41441-.00732-1.1208-.01512-2.27964,.0317-3.42482Z"/><path class="b" d="M938.38218,63.49457c-.44188-3.0405-1.8441-5.63033-4.16715-7.6983-3.10049-2.75956-6.89159-4.17007-11.26798-4.19348-4.79778-.02536-9.63555-.03414-14.45528-.03414-5.31233,0-10.6032,.01073-15.80336,.02048l-3.25363,.00683c-.98326,.00195-2.05138,.10242-3.17462,.29946-1.92604,.33848-3.72234,.97741-5.33818,1.89726-2.47473,1.41051-4.30371,3.21705-5.5918,5.52108-1.14909,2.05529-1.70607,4.31639-1.70315,6.91305l.00293,8.32942c-.00049,3.7516-.00049,7.50223,.00732,11.25383,.00195,.7472,.0595,1.5422,.17119,2.3606,.57015,4.17397,2.77907,7.46028,6.56628,9.76724,2.77029,1.68851,5.9576,2.54496,9.47363,2.54691,9.82528,.00585,19.65104,.0039,29.47534,.00195l3.27509-.00098c2.86345,0,5.51864-.58722,7.89192-1.74509,4.73925-2.31183,7.35591-5.86834,7.99971-10.87048,.05024-.39018,.06877-.78329,.08877-1.19103l.00146-.03512h-10.54321l-.0356,.29264c-.28093,2.41133-1.80069,4.15934-4.06619,4.67536-.87303,.19899-1.75387,.30044-2.61861,.30142-10.07499,.01951-20.14999,.01853-30.22693,.00098-.87791-.00195-1.75875-.10242-2.61861-.29849-1.97774-.45066-3.31509-1.65437-3.86719-3.48043-.21021-.69452-.33068-1.47489-.3575-2.31866-.03804-1.16567-.02878-2.34792-.02-3.49018v-2.43852l54.4275,.0945,.00293-3.85793c.00439-2.96636,.00829-5.93272-.01512-8.89908-.01073-1.37929-.09559-2.59959-.25996-3.73112Zm-10.31276,5.43469c-.00585,.53748-.01171,1.07495-.00927,1.61243l-.00341,.76476h-43.84429v-.95595c.00098-.47212,.00341-.94327,0-1.41441-.00732-1.1208-.01512-2.27964,.0317-3.42482,.10974-2.66787,1.73631-4.58367,4.35053-5.12504,.85743-.17851,1.76119-.26923,2.68592-.2702,7.71683-.01268,15.43317-.01268,23.15244-.01268h6.75259c.92278,0,2.13625,.05267,3.33898,.46529,2.11332,.72476,3.31606,2.28354,3.47847,4.51051,.09413,1.28565,.07999,2.58886,.06633,3.85012Z"/><path class="b" d="M546.3985,63.49457c-.44237-3.04147-1.8441-5.63131-4.16666-7.6983-3.10049-2.75956-6.89159-4.17007-11.26846-4.19348-4.79778-.02536-9.63506-.03414-14.45528-.03414-5.31184,0-10.60271,.01073-15.80238,.02048l-3.25461,.00683c-.98326,.00195-2.05138,.10242-3.17462,.29946-1.92555,.33848-3.72185,.97741-5.33769,1.89726-2.47522,1.41148-4.30469,3.21705-5.59229,5.52108-1.1486,2.05431-1.70558,4.31542-1.70315,6.91305l.00293,8.2348c-.00049,3.78282-.00049,7.56563,.0078,11.34845,.00146,.74622,.05853,1.54122,.1707,2.3606,.57015,4.17495,2.77956,7.46028,6.56677,9.76724,2.76981,1.68851,5.95711,2.54496,9.47363,2.54691,9.82528,.00585,19.64958,.0039,29.47485,.00195l3.27509-.00098c2.86345,0,5.51864-.58722,7.89192-1.74509,4.73876-2.31183,7.35591-5.86737,8.0002-10.87145,.04975-.38726,.06828-.78036,.08828-1.18713l.00146-.03804h-10.54321l-.0356,.29264c-.27996,2.41133-1.8002,4.15934-4.06619,4.67536-.87303,.19899-1.75387,.30044-2.61812,.30142-10.07499,.01951-20.15047,.01853-30.22742,.00098-.87742-.00195-1.75826-.10242-2.61812-.29849-1.97822-.45066-3.31557-1.65437-3.86768-3.48043-.20972-.69452-.33019-1.47391-.3575-2.31866-.03804-1.16567-.02878-2.34792-.02-3.49018l.00683-1.11885c.00049-.15217,.01951-.30337,.04536-.48773l.08828-.73744h54.28703l.00341-3.87158c.0039-2.96148,.00829-5.92394-.01561-8.88543-.01073-1.37929-.09559-2.59959-.25996-3.73112Zm-10.33446,5.49767c-.00585,.53845-.01171,1.0769-.00927,1.61535,.00146,.15217-.05365,.26727-.08974,.34336l-.139,.33946-.40384,.08194h-43.08978l-.08389-.61551c-.02048-.12486-.0356-.23313-.0356-.34043,.00098-.47212-.00244-.94327-.00585-1.41441-.00732-1.1208-.01512-2.27964,.0317-3.42482,.11023-2.66787,1.7368-4.58367,4.35053-5.12504,.85743-.17851,1.76167-.26923,2.6864-.2702,7.71732-.01268,15.43512-.01268,23.15244-.01268h6.75259c.92229,0,2.13576,.05267,3.3385,.46529,2.11284,.72379,3.31606,2.28354,3.47896,4.51051,.09364,1.28468,.0795,2.58788,.06584,3.8472Z"/><path class="b" d="M255.13062,64.49527V26.68185h-10.62613V100.40386c1.2398-.00195,2.23721-.00975,3.36971-.01853,1.69583-.01366,3.69356-.02829,7.25641-.03024v-8.30503c.03121-7.36176,0-5.72641,0-13.0883v-14.46649Z"/><path class="b" d="M998.10615,59.20647c-1.27882-2.4084-3.09122-4.2881-5.38647-5.58546-2.33963-1.32077-5.01384-1.9831-8.17481-2.02505-4.28713-.05755-8.13579-.05658-11.76643,.00195-2.46327,.0389-4.88191,.56778-6.98768,1.49952-1.43246,.63386-2.6947,1.59792-3.78989,2.71811l-.06072,.06219v-4.16568h-10.62905s.25313,48.85167,.0834,48.74937h10.55638l.14827-33.03868c.00537-1.00765,.05414-1.828,.15412-2.58203,.25264-1.90994,1.26809-3.26973,3.01806-4.04326,1.23639-.54723,2.50351-.62234,3.58041-.62429,4.59293-.00585,9.18391-.01171,13.77587,.00585,.73647,.00293,1.46123,.10437,2.20063,.21558,2.65738,.4042,4.37516,2.37517,4.58318,5.26801l.00049,.00043h10.58808c-.35019-2.63178-.954-4.68804-1.89385-6.45654Z"/><path class="b" d="M606.75896,59.20647c-1.27882-2.4084-3.09122-4.2881-5.38647-5.58546-2.33963-1.32077-5.01384-1.9831-8.17481-2.02505-4.28713-.05755-8.13579-.05658-11.76643,.00195-2.46327,.0389-4.88191,.56778-6.98768,1.49952-1.43258,.63386-2.69482,1.59792-3.78977,2.71811l-.06084,.06219v-4.16568h-10.62905s.25313,48.85167,.0834,48.74937h10.55638l.14827-33.03868c.00537-1.00765,.05414-1.828,.15412-2.58203,.25264-1.90994,1.26809-3.26973,3.01806-4.04326,1.23639-.54723,2.50351-.62234,3.58041-.62429,4.59293-.00585,9.18391-.01171,13.77587,.00585,.73647,.00293,1.46123,.10437,2.20063,.21558,2.65738,.4042,4.37528,2.37517,4.58318,5.26801l.00049,.00043h10.58808c-.35019-2.63178-.954-4.68804-1.89385-6.45654Z"/><path class="b" d="M453.28151,100.47409c.55601-.00098,1.13787-.07121,1.70071-.13949l.13608-.01658c3.04586-.3658,5.78055-1.42124,8.12896-3.13511,2.06455-1.50708,3.5292-3.3146,4.47685-5.52498,.755-1.75972,1.12031-3.6843,1.11787-5.88395-.00732-6.28096-.00439-12.56192-.00195-18.84288l.00049-.81938c.00049-1.03203-.03951-2.38109-.35604-3.66186-.79597-3.21998-2.55326-5.82932-5.22259-7.75487-3.03269-2.18697-6.56579-3.29997-10.4998-3.30875-8.46891-.01853-16.93635-.01463-25.40379,.00585-1.01301,.00293-2.05724,.09169-3.10341,.26435-2.32549,.38433-4.55294,1.27297-6.61993,2.64251-.13608,.08974-.85694,.56637-1.41222,.98948l-.00024,.0264v-3.68082h-10.58516v61.96289c1.15543-.00293,3.14097-.01463,5.15041-.02634,2.09577-.01268,4.21738-.02536,5.45426-.02829l.00293-29.29196c-.00488-5.7864-.00488-11.57378,0-17.36018l-.00049-.27996c-.00146-.57942-.00341-1.17835,.07365-1.77533,.27898-2.16746,1.43977-3.66869,3.35703-4.33883,.91644-.31995,1.8797-.49358,2.7859-.50138,3.67893-.03121,7.35786-.02634,11.03826-.02439l3.73112,.00293,3.84427-.00293c3.64138-.00293,7.28373-.00683,10.92559,.02634,.86328,.0078,1.82557,.18826,2.78297,.52187,2.07138,.72184,3.3624,2.59081,3.36825,4.87923,.01658,6.98426,.01317,13.97048,.00244,20.95669-.00439,2.69128-1.56658,4.65975-4.17983,5.26453-.8384,.19412-1.71973,.29361-2.62007,.29556-7.16521,.01366-13.02575,.01171-19.12625,.01268h-5.55327l-7.93679,8.55084c8.18846,.02341,25.23796,.00683,33.65468-.00293l.88913-.00098Z"/><path class="b" d="M784.88521,100.26827V28.30891l-10.60467,.05463-.00195,56.92369c.00146,.58137,.00293,1.18128-.07365,1.78021-.27898,2.16844-1.43928,3.66869-3.35703,4.33883-.91644,.31995-1.8797,.49358-2.7859,.50138l-29.53924-.00098c-.86377-.00878-1.82605-.18924-2.78297-.52284-2.07236-.72184-3.36288-2.59081-3.36825-4.87825-.01658-6.98524-.01317-13.97145-.00293-20.95766,.00439-2.69128,1.56707-4.65878,4.18032-5.26453,.83938-.19412,1.72119-.29361,2.62056-.29459l24.67903-.01366,7.93679-8.54987c-8.19334-.02536-25.25211-.0078-33.67419,.00195l-.86962,.00098c-.5565,.00098-1.13933,.07121-1.70315,.13949l-.13364,.01658c-3.04684,.36677-5.78201,1.42221-8.12945,3.13511-2.0348,1.48562-3.54139,3.34484-4.47685,5.52498-.755,1.75972-1.12031,3.68527-1.11787,5.88492,.00829,6.55409,.00488,13.10817,.00146,19.66128-.00049,1.03203,.03951,2.38109,.35653,3.66284,.79597,3.21998,2.55326,5.82835,5.22259,7.7539,3.03269,2.18697,6.5653,3.29997,10.49932,3.30875,8.46988,.02048,16.93732,.01561,25.40428-.00585,1.01252-.00293,2.05675-.09169,3.10292-.26435,2.32549-.38433,4.55245-1.27297,6.61993-2.64251,.13486-.08895,.68745-.44341,1.41295-.88303v-.01128h.01853l-.01853,.01128v3.54798h10.58467Z"/><rect class="b" x="619.00215" y="27.24664" width="10.62905" height="73.23428"/><path class="b" d="M305.73238,27.24664V60.60905c-8.94371-.00091-38.48392-.00201-43.62116-.00665l-6.95646,8.54889c8.31088,.01299,38.04948,.00829,50.57762,.00165v31.3309l10.62954-.00585-.00098-73.23136h-10.62856Z"/><path class="b" d="M861.64284,51.81349c0-.11023-.00537-.22143-.01268-.33751-1.37637,.00488-2.74444,.0039-4.10911,.00195-2.14015-.00293-4.2764-.00488-6.42776,.01756l-.04243,3.80062s-4.27225-3.9206-11.46843-3.9206c-3.96474,0-7.92948,.00488-11.89422,.00585-4.32712,.00098-8.64888-.00098-12.97356,.00878-1.26712,.00293-2.27915,.07413-3.18535,.22338-2.48546,.40676-4.73535,1.24663-6.68724,2.49522-2.76786,1.76948-4.6739,4.12715-5.66545,7.00572-.52431,1.52269-.77695,3.18389-.77159,5.08017,.01122,4.30176,.00927,8.60254,.0078,12.90333l-.00049,6.45069c.00049,1.17835,.07511,2.16454,.23557,3.10292,.437,2.55569,1.50562,4.7651,3.17511,6.56677,3.13024,3.37995,7.09546,5.13285,11.78594,5.21088,7.8134,.13169,16.91733,.08584,25.72033,.04097l1.01935-.00585,7.93289-8.54792c-9.61409,.01756-23.49678,.01756-32.60314-.0078-.8345-.00195-1.76704-.14144-2.77224-.41457-2.23282-.60771-3.62577-2.38109-3.82135-4.86752-.02146-.26435-.02097-.53162-.02-.79792l.00049-7.02035-.00244-12.57265c0-.85547,.04585-1.77143,.37701-2.66982,.57015-1.54317,1.65047-2.60934,3.12487-3.08049,.99399-.31897,1.92799-.48383,2.77615-.49163,3.68039-.03317,7.36079-.02829,11.04069-.02439l3.73209,.00293,3.69161-.00293c3.69503-.00293,7.3881-.00683,11.08166,.02439,.84084,.00683,1.75094,.17168,2.70494,.49065,1.58219,.53162,2.66787,1.70412,3.14145,3.38971,.19119,.68282,.29312,1.3832,.29508,2.02602l.04682,39.6152h-.00488v.1512c.00195,.58332,.00341,1.16664,.00146,1.74899-.00146,.48968-.12291,1.03691-.34141,1.53927-.54869,1.26224-1.54171,2.16746-2.95173,2.69128-.97107,.36092-2.027,.56089-3.18633,.5326l-12.66775-.00488c-5.80006-.00098-11.73863-.00195-16.68956-.0078l-6.96036,8.55279c7.63587,.03999,20.98742,.02048,30.86732,.00585l6.94232-.00975c.72086-.00098,1.45782-.07023,2.14649-.14632,2.42011-.26337,4.72706-1.06422,6.85745-2.37816,2.58301-1.59292,4.37784-3.6365,5.48743-6.24682,.73549-1.72948,1.0769-3.62772,1.07544-5.97369-.0078-12.27513-.00732-24.55124-.00732-36.82638l-.00098-17.32994Z"/><path class="b" d="M392.26091,51.85836c0-.07511-.00244-.14924-.00634-.22533h-10.58223v6.34631c.00098,9.16245,.00146,18.32393-.01024,27.48639-.00049,.76573-.08243,1.51878-.24289,2.2377-.36287,1.62413-1.29541,2.79858-2.77273,3.49018-1.06569,.50041-2.27427,.73354-3.80281,.73354h-6.66139c-7.21691,0-14.43382,.00195-21.6517-.01268-.90132-.00195-1.78313-.10242-2.62154-.29946-1.98895-.46529-3.33703-1.65437-4.0062-3.5331-.31068-.87206-.31068-1.74802-.31068-2.52058l-.00195-33.58104c0-.11608-.00488-.23216-.01171-.34921h-10.55833l-.00049,7.55393c-.00098,8.7313-.00146,17.46261,.00878,26.19391,.00146,.97936,.06682,1.98017,.19412,2.97612,.32727,2.56545,1.37003,4.83338,3.09902,6.74235,3.12585,3.45116,7.12278,5.24502,11.87959,5.33086l27.63368,.03414c3.25729,0,6.12757-.80298,8.47988-2.36956,.1351-.08974,.79085-.54735,1.34479-1.19695l.0128-.00561-.01024,10.28618c-.01707,1.61243-.77939,2.95856-2.20502,3.89402-1.13202,.7433-2.48985,1.10519-4.15056,1.10519h-.00829l-9.95209-.00195c-6.74479-.00098-14.09094-.00195-19.5296-.00683l-6.95646,8.54889c9.37705,.01463,29.33732,.00683,37.76818-.00098,.65209-.00098,1.35735-.0478,2.21867-.14924,2.92539-.34531,5.58107-1.39002,7.89241-3.10488,3.63796-2.69713,5.48889-6.26438,5.50108-10.60418,.03951-13.55298,.03268-27.33324,.02585-40.65992l-.00537-14.33822Z"/></g><g><path class="b" d="M92.14505,132.83066c.02195-.00066,.0713-.01087,.09381-.01041,2.68838-.2316,7.40268-.77148,10.1232-1.10523,.14808-.01644,.29858-.0209,.45007-.02153,1.91185,0,4.01681,1.04585,5.11879,2.54327l6.31278,8.57735c.23112,.3102,.97599,.69483,1.50038,.66206l18.2987-1.93112c.42397-.04477,1.12892-.55951,1.30051-.94973l7.10489-16.1507c.3374-.76697,.21274-1.95074-.27703-2.63061l-6.65903-9.24368c-1.17977-1.63783-1.44614-4.16755-.63332-6.01514l2.72339-6.19108c.16307-.37056,.10926-1.15773-.08846-1.58249-.02708-.05819-.06464-.11057-.1045-.16088l-4.11515-5.19448c-.6082-.76772-1.81473-.61273-2.20914,.28379l-4.5692,10.38597c-.81621,1.85523-2.87112,3.36008-4.88617,3.57827l-9.25082,1.00129c-.82874,.0897-1.78142,.78737-2.11708,1.55039l-3.80726,8.65465c-.78118,1.77568-2.70419,3.25767-4.62887,3.59107-12.41288,1.50696-53.21833,5.94586-64.86291,7.52862-2.08629,.21533-4.41649-.91304-5.57449-2.58171l-8.46181-11.85397c-.70993-1.00202-1.88451-2.56484-2.63612-3.53479l-8.34921-11.45193c-1.1883-1.64506-1.45643-4.17507-.6432-6.02374l13.24323-30.10435c.81511-1.85293,2.86704-3.36035,4.87899-3.58425l20.42971-2.27255c.82975-.0923,1.78369-.79306,2.11986-1.55725l2.68792-6.11011c.37094-.84322-.30849-1.77213-1.2242-1.67158-4.32565,.47501-10.5529,1.19996-16.25488,1.79725-4.75502,.45007-11.34472,.75161-15.9698,1.51116-.05447,.00895-.10668,.01937-.15866,.03797-.51545,.18448-1.25823,.8488-1.46961,1.32924L.09129,98.2321c-.17661,.40145-.08461,1.29977,.16971,1.6571,6.14176,8.65966,14.67849,20.31716,21.32337,28.58596l.04369,.05157,.04037,.05419,1.93275,2.59242c1.90634,2.49042,8.25652,11.34607,10.18968,14.01574,1.76945,2.24642,5.02327,6.45932,6.75517,8.77599,2.09529,2.62265,7.96512,11.03026,9.9917,13.83228,2.4826,3.4642,2.89204,3.85136,6.49523,8.43854,.21214,.27007,.55094,.41428,.89267,.38024,14.92532-1.48696,21.04473-2.31489,32.69071-3.62356,1.08345-.12175,1.62667-1.37268,.97295-2.24522-1.2996-1.73462-3.02853-3.99578-4.11669-5.39777-.59094-.76138-1.54293-1.14363-2.49778-1.01262-.31349,.04301-.62896,.09773-.94427,.13559-7.55713,.90741-18.81559,2.27342-19.62883,2.29979-1.8808-.00251-3.4937-.43814-4.65206-1.84062l-.51185-.54797c-.02518-.02696-.04886-.05529-.07093-.08486l-2.96618-3.97431c-1.89586-2.45375-7.58492-10.46976-9.50574-13.08899-.61975-.80763-2.62562-3.66907-3.07549-4.868-.35301-.94101-.24214-1.9608,.30418-2.79805,.65618-1.00555,1.85415-1.63182,3.29129-1.72226l3.70221-.32939c2.84223-.20955,11.86967-1.49093,14.85504-1.85054"/><path class="b" d="M161.25925,117.6844c1.23537,1.59036,1.55795,4.16397,.74809,6.00479l-13.40271,30.46692c-.81546,1.8536-2.86821,3.36028-4.8811,3.58249l-32.91027,3.63293c-.17966,.01989-.3637,.02984-.55141,.02984-1.87545,0-3.80599-1.1518-4.87003-2.60573l-12.77411-17.15149c-.23025-.31466-.9841-.71354-1.50567-.7155l-8.34378,1.28049c-.21297,.03268-.32199,.27516-.20726,.45754,4.7694,7.58214,8.04026,11.24769,11.17384,15.42957l8.42173,11.60155c.58015,.81864,1.54143,1.33958,2.27545,1.33958,3.69686,0,3.5644-.53503,9.16887-1.11931,11.62978-1.3026,14.59608-1.53954,22.64544-2.29557,3.11302-.23602,12.62435-1.48979,15.83934-1.86376,.42706-.05452,1.15507-.5985,1.33262-1.00223l37.88411-86.11768c.17714-.40265,.08569-1.30416-.16863-1.66306-6.14558-8.28574-13.26975-18.15615-20.28801-27.38186-.12393-.16292-.37697-.13192-.45941,.05545l-3.43981,7.81879c-.17154,.38987-.07454,1.25661,.1789,1.599l10.78843,13.58184c2.94746,3.75547,2.26548,11.48817,1.23284,13.39041l-9.28286,19.55671c-1.12797,2.6698-4.36832,3.00498-6.0195,.66039l-33.3627-45.46784c-1.19858-1.6335-1.47638-4.16505-.66052-6.01954l4.02112-9.1408c.07192-.16347,.11951-.48444,.14462-.83921,.05503-.77759-.16064-1.54954-.59841-2.19454-.20911-.3081-.45686-.65806-.72564-1.01368l-4.71619-6.28253c-2.16056-2.80633-2.5309-3.54264-5.05748-6.81151-.42151-.54535-1.06192-.88481-1.75056-.91412-.33625-.01431-.67708-.01139-.95157,.01651-.02387,.0023-2.41216,.23261-4.64482,.50986-4.76901,.59233-12.22051,1.60166-12.29524,1.6118-.4421,.05993-1.17803,.61417-1.35767,1.02257l-4.67841,10.63481c-.76691,1.74332-2.93914,3.37444-4.82717,3.62471l-7.103,.94156c-.44264,.05863-1.18161,.59706-1.39297,1.00837l-3.26116,7.90484c-.1127,.27318,.10981,.56685,.40327,.53205,4.98074-.59055,11.08462-1.30295,12.89896-1.27821,1.24371,0,2.60163,.09922,3.54399,.25885,.93553,.15854,1.87552,.90326,2.79387,2.21345,2.12681,3.03406,4.38768,6.64351,4.38768,6.64351,1.3432,1.58024,3.84111,1.25743,4.5827,1.15884,.04756-.00632,5.3755-1.03985,5.41789-1.03994,.87792-.0991,2.06297-.1483,3.23802-.15096,.60057,0,1.15576,.01551,1.6057,.04487,1.23078,.08467,3.05923,1.02549,4.87518,3.97821"/><path class="b" d="M39.71328,10.38823c-.39922,.03189-1.08814,.5216-1.24938,.88822l-13.8901,31.57474c-.05424,.12329,.04283,.25982,.1771,.24909l8.57878-.68592c.44413-.08408,1.14204-.61646,1.31615-1.01223l8.5532-19.44289c.8158-1.85476,2.87004-3.36028,4.88442-3.57992l25.80646-2.81341c.17058-.0186,.33508-.02725,.49295-.02725,2.63247-.03478,4.20385,2.52046,3.08682,4.91178l-22.77247,51.76634c-.81371,1.84981-2.86151,3.36049-4.86906,3.5921l-10.58319,1.22083c-.51642,.05957-1.11021,.49763-1.31953,.97347l-7.40929,16.84274c-.1762,.40051-.08372,1.29599,.17053,1.65205l2.31173,3.20409c1.63057,2.2186,4.50177,6.11214,6.10987,8.39639,.57438,.78554,1.65711,2.26341,2.59298,3.00661l.19257,.10974c.54455,.31032,1.16638,.46254,1.79275,.44028,3.97651-.14134,6.3872-.33158,10.0685-.8636,1.91445-.27668,4.81935-1.50311,5.69457-.27884l5.98302,7.85411c.25197,.38174,.68569,.60203,1.14253,.57932,3.24952-.16155,6.33291-.84232,7.78304-1.11368,.27248-.05099,.39753-.36901,.23443-.59316l-7.67202-10.5437c-1.12952-1.55231-1.42118-4.26011-.64814-6.01734l3.73577-8.49193c.17964-.40841,.09097-1.3256-.16356-1.69208-.044-.14009-6.08477-8.53184-6.28421-8.70068-1.22545-1.62685-1.51968-4.16078-.69955-6.02521l25.97089-59.03659c.81527-1.85341,2.69228-3.21649,4.52079-3.3095l.68566-.1304c9.10898-1.5361,12.72129-1.41968,17.98087-2.16133,3.51936-.22403,12.9863-1.18181,16.44676-1.02876,.30724,.01,2.82381,.33339,4.86704,3.30826,1.29991,1.89262,2.57684,3.60378,4.36215,6.08502,3.77522,5.21083,4.41764,5.80954,7.18155,9.39064l7.01975,10.12529c1.20845,1.6254,1.49653,4.1305,.68222,5.98188l-8.49558,19.31195c-.17498,.39792-.17935,1.41982,.13211,1.67226l5.09682,6.44891c.16946,.21442,.50622,.17135,.61627-.07881l13.72155-31.19098c.17065-.38799,.08014-1.24551-.16578-1.60185l-1.40799-1.82628c-1.7554-2.43719-7.53444-10.17072-9.46374-12.69269-1.62402-2.31323-6.41947-8.86363-8.16508-11.23973-1.63522-2.50622-7.7576-10.6768-9.61174-13.231-.19993-.26685-.88757-.61007-1.38114-.55957-.19569,.03072-4.82903,.75683-8.30436,1.12079"/></g></svg>