<?xml version="1.0" encoding="UTF-8"?> <svg xmlns="http://www.w3.org/2000/svg" xml:space="preserve" viewBox="0 0 676 79"> <path fill="#e3232c" d="m571.9 27.5-5.7-12.6h5.3l3.7 8.7h.7l3.3-8.7h5L579 27.5h-1V35h-5v-7.5h-1.1zm-361.1 11V40c0 11-8.2 25.4-25.9 25.4C167.1 65.4 159 51 159 40v-1.5c0-12 8.6-25.2 25.9-25.2s25.9 13.3 25.9 25.2zm-8.9.9c0-10.1-6.6-17.9-17-17.9-10.6 0-17.1 7.8-17.1 17.9 0 9.6 6.6 17.9 17.1 17.9 10.5 0 17-8.3 17-17.9zm433.5 3.4-3.8.9c.8 2.8 1.7 6.2 2.6 10.1l4-.9c-1-3.9-1.9-7.3-2.8-10.1zm-44.8-7.9h8v-4.2h-8v-4h7.4v-4.2h-7.4V19h7.8v-4.2h-12.7v20.1h4.9zm-10.7 10.4h19.9v-3.7h-19.9v3.7zm71.7 5.3c-.6 2.3-1.5 4.2-2.8 5.8-1.3 1.5-2.9 2.7-4.9 3.5-2 .8-4.5 1.4-7.6 1.8l.8 3.7c4.7-.5 8.5-1.6 11.3-3.3 2.8-1.7 4.8-4.1 6.2-7.3 1.3-3.2 2.1-7.5 2.1-12.8l-4.2-.1c-.1 3.5-.4 6.4-.9 8.7zm-47 12.5c7.5.3 15.2 1.1 23.2 2.4l.4-4c-7.9-1.4-15.7-2.2-23.4-2.4l-.2 4zm20.2-7.3.6-4c-6.3-1.1-12.2-1.7-17.8-2l-.3 4.1c5.7.2 11.5.9 17.5 1.9zm15-13.1c.9 3.4 1.8 6.9 2.7 10.4l4-.8c-1-3.9-1.9-7.4-2.7-10.5l-4 .9zM651 31.1c-.5.2-1.1.3-1.9.3-.8 0-1.5-.1-2-.4-.5-.2-1-.5-1.2-.9-.2-.4-.4-.8-.4-1.3h-5c0 1.3.3 2.5 1 3.5s1.6 1.8 2.9 2.4c1.3.6 2.9.9 4.7.9 1.7 0 3.2-.2 4.5-.8 1.3-.5 2.2-1.3 2.9-2.3.7-1 1-2.1 1-3.4 0-1.3-.4-2.4-1-3.3-.7-1.1-1.6-1.8-2.7-2.3-1.1-.5-2.5-.8-4-1l-1.3-.1c-.8-.1-1.5-.3-1.8-.7-.4-.4-.5-.8-.5-1.3 0-.4.1-.7.3-1 .2-.3.5-.5.8-.7.4-.2.8-.2 1.4-.2.6 0 1.1.1 1.5.3.4.2.7.5 1 .9.2.4.4.8.4 1.2h5c0-1.3-.3-2.5-.9-3.5-.6-1-1.5-1.8-2.6-2.3-1.1-.5-2.6-.8-4.2-.8-1.5 0-2.9.2-4 .7-1.1.5-2 1.2-2.6 2.2-.6 1-.9 2.1-.9 3.4 0 1.9.6 3.4 1.9 4.5 1.3 1.1 2.9 1.8 5 2l1.3.1c1.2.1 2 .3 2.5.6s.7.8.7 1.4c0 .5-.1.8-.4 1.2-.5.3-.9.5-1.4.7zm-46.4 3.8h-5.1l6.5-20.1h8.2l6.6 20.1h-5.3l-1.4-4.7h-8l-1.5 4.7zm2.8-8.8h5.4l-2.2-7.1h-1l-2.2 7.1zm19.8 17c-6.9-1-13.9-1.6-21-1.8l-.2 3.9c6.8.2 13.7.9 20.8 1.8l.4-3.9zm-492-7.8-4.7-.4c-5-.4-7.4-3.2-7.4-6.4 0-4 3-7.6 9.3-7.6 6.3 0 9.3 4 9.3 8.1h8.6c0-9.5-7-15.7-17.9-15.7-10.8 0-17.8 6-17.8 15.3 0 8.1 6 13.4 15.2 14.2l4.7.4c6.4.6 9.5 2.9 9.5 6.6 0 4.4-3.6 8-11.2 8-8.4 0-11.4-4.3-11.4-8.5h-8.6c0 9.3 7.1 16.1 20 16.1 12 0 19.8-6.3 19.8-15.6 0-8.6-6.9-13.5-17.4-14.5zm388.7 9.6c0 7.6-4.4 12.4-12.2 12.4-7.9 0-12.3-4.9-12.3-12.4V14.8h-8.7v29.6c0 12.7 7.3 21.1 21 21.1s21-8.4 21-21.1V14.8h-8.8v30.1zm30.4-10 7.2-17.4v-2.8h-15.8v7.5h4.1V19h5.3l.4.5-6.6 15.4h5.4zM247.5 45.8 261 64.1h-10.3l-12.1-16.9h-9.4v16.9h-8.7V14.5h17.7c11.6 0 18.9 5.1 18.9 15.9v1.1c0 7.4-3.5 12.1-9.6 14.3zm.9-14.8c0-5.3-3.5-9.1-9.1-9.1h-10V40h10c5.5 0 9.1-3.7 9.1-9zm153-8.6h14.5V64h8.7V22.4H439v-7.7h-37.7v7.7zm-16.8 41.7h8.7V14.8h-8.7v49.3zm193-10.9h19.6c-.6 2.9-2.2 5.1-4.8 6.5s-6.1 2.2-10.5 2.5l.6 3.7c6.5-.3 11.3-1.8 14.4-4.4 3.1-2.6 4.7-6.3 4.7-11.1v-.7h-24v3.5zm-19.3-.8c-1.5-3.5-3.1-7.1-4.9-10.7l-3.8 1.6c1.9 4 3.5 7.5 4.8 10.5l3.9-1.4zm10.6-2.3c-.6 2.3-1.6 4.2-2.9 5.8-1.3 1.6-3 2.8-4.9 3.6s-4.4 1.5-7.5 1.9l.8 3.7c4.7-.6 8.4-1.7 11.2-3.4 2.8-1.7 4.9-4.1 6.2-7.3s2.1-7.4 2.2-12.7l-4.1-.2c-.1 3.5-.4 6.3-1 8.6zM464.8 35.4l-4.7-.4c-5.1-.4-7.4-3.1-7.4-6.4 0-4.1 3-7.6 9.3-7.6 6.4 0 9.3 3.9 9.3 8.1h8.6c0-9.5-7-15.7-17.9-15.7-10.8 0-17.8 6-17.8 15.3 0 8.1 6 13.4 15.2 14.1l4.7.4c6.4.6 9.5 3 9.5 6.6 0 4.4-3.6 8-11.2 8-8.4 0-11.4-4.3-11.4-8.5h-8.6c0 9.3 7.2 16.1 20 16.1 12 0 19.8-6.4 19.8-15.6-.1-8.6-7-13.5-17.4-14.4zM295.2 14.8l17.7 49.3h-9l-4.7-13.6h-22.1l-4.6 13.6h-8.7l17.1-49.3h14.3zm1.3 28.3-7.3-20.9h-2.5l-7.1 20.9h16.9zm50.1 2.1h-1.2l-13-30.5h-11.8V64h8V24.6L341.2 54h9.3L363 24.5v39.6h8.7V14.8h-12l-13.1 30.4zM634.5 35l-4.1-6.2h-2.9V35h-5.1V14.7h8.3c1.7 0 3.2.2 4.6.8 1.3.5 2.2 1.3 2.9 2.3.7 1 1 2.3 1 3.8v.4c0 1.5-.4 2.8-1 3.8-.7.9-1.6 1.6-2.7 2.2l4.9 7.1h-5.9zm-.5-13.1c0-.6-.1-1.1-.4-1.6-.2-.4-.6-.8-1-1-.4-.2-1-.4-1.6-.4h-3.6v5.9h3.5c.6 0 1.1-.1 1.6-.4.4-.2.8-.6 1-1 .4-.4.5-.9.5-1.5zM69.2 61.6h20.6v-3.5c-5.3-.3-18.5-1.8-22.4-1.8.2.6 1.2 3.4 1.8 5.3zm11.5-34.2H78c-1.9 0-3.4-1.5-3.4-3.4H64.1c-1.9 0-3.4-1.5-3.4-3.4s1.5-3.4 3.4-3.4h25.4C82.6 7.2 70.8.5 57.5.5c-18.4 0-33.9 12.8-38 30h32.6c1.9 0 3.4 1.5 3.4 3.4s-1.5 3.4-3.4 3.4H41.6c0 1.9-1.5 3.4-3.4 3.4H18.5c0 1.7.2 3.3.4 5 11.9 2.2 25.4 3.4 39.7 3.4 13.3 0 26-1.1 37.3-3 .3-2.1.5-4.3.5-6.5 0-4.2-.7-8.3-1.9-12.1H80.7zM54.9 51c-.1 1.4-.1 2.8-.2 4.3 0 .4 0 .4-.4.4-.9.1-1.8.2-2.7.4-.1 0-.2.1-.2.2 0 .3-.1.7-.1 1 0 .4-.1.7-.2 1.1l4.5-.9v.1c-.3.2-.6.3-.9.5-.1 0-.2.2-.2.3-.1 1.2-.2 2.4-.4 3.6-.1 1.2.7 2.3 2.1 2.3 2 0 4.2-.4 6.2-.4h.2c.6-.1.8-.3.9-.5.4-.5.1-1-.2-1.7-.3-.8-.5-.9-.9-1.7-.2-.3-.3-.6-.5-.9-.1.1-.1.2-.1.3 0 .6-.1 1.1-.1 1.7 0 .5-.3.8-.8.9-1.1.2-2.4.4-3.5.4-.7 0-.8-.3-.9-.9v-.4c.1-1.2.1-2.3.2-3.5 0-.2.1-.2.2-.3 1.9-.3 3.8-.6 5.6-.9.6-.1 1.2-.1 1.8-.2-.3-.8-.5-1.5-.8-2.3-2.2.5-4.4 1-6.6 1.4.2-1.5.6-2.9 1-4.4l-3 .1v-.1c.1 0 0 .1 0 .1zM48 56.3c-4 0-18 1.5-23.3 1.8v3.5h22.5c.4-2.6.5-3.9.8-5.3zM33.2 70c6.7 5.3 15.1 8.5 24.3 8.5 9.2 0 17.7-3.2 24.3-8.5v-3.7H33.2V70z"></path> </svg> 